<mxfile host="app.diagrams.net" modified="2024-04-01T02:50:24.475Z" agent="Mozilla/5.0 (Macintosh; Intel Mac OS X 10_15_7) AppleWebKit/537.36 (KHTML, like Gecko) Chrome/123.0.0.0 Safari/537.36" etag="hLCzHy9HsW6TxCyxqNJK" version="24.2.1" type="github" pages="3">
  <diagram id="C7yYQ_p85xzNqxfkVTD4" name="Page-1">
    <mxGraphModel dx="1738" dy="1887" grid="1" gridSize="10" guides="1" tooltips="1" connect="1" arrows="1" fold="1" page="1" pageScale="1" pageWidth="827" pageHeight="1169" math="0" shadow="0">
      <root>
        <mxCell id="0" />
        <mxCell id="1" parent="0" />
        <mxCell id="8PtQkceEUMD9FGPDLvbn-18" value="WebRtcTransport" style="swimlane;fontStyle=1;align=center;verticalAlign=top;childLayout=stackLayout;horizontal=1;startSize=26;horizontalStack=0;resizeParent=1;resizeParentMax=0;resizeLast=0;collapsible=1;marginBottom=0;" parent="1" vertex="1">
          <mxGeometry x="-120" y="120" width="440" height="304" as="geometry">
            <mxRectangle x="100" y="190" width="140" height="30" as="alternateBounds" />
          </mxGeometry>
        </mxCell>
        <mxCell id="8PtQkceEUMD9FGPDLvbn-19" value="+ field: type" style="text;strokeColor=none;fillColor=none;align=left;verticalAlign=top;spacingLeft=4;spacingRight=4;overflow=hidden;rotatable=0;points=[[0,0.5],[1,0.5]];portConstraint=eastwest;" parent="8PtQkceEUMD9FGPDLvbn-18" vertex="1">
          <mxGeometry y="26" width="440" height="26" as="geometry" />
        </mxCell>
        <mxCell id="8PtQkceEUMD9FGPDLvbn-20" value="" style="line;strokeWidth=1;fillColor=none;align=left;verticalAlign=middle;spacingTop=-1;spacingLeft=3;spacingRight=3;rotatable=0;labelPosition=right;points=[];portConstraint=eastwest;" parent="8PtQkceEUMD9FGPDLvbn-18" vertex="1">
          <mxGeometry y="52" width="440" height="8" as="geometry" />
        </mxCell>
        <mxCell id="g4bfDw-wizDEZsIG3LqJ-18" style="edgeStyle=orthogonalEdgeStyle;rounded=0;orthogonalLoop=1;jettySize=auto;html=1;entryX=0;entryY=0.5;entryDx=0;entryDy=0;" parent="8PtQkceEUMD9FGPDLvbn-18" source="8PtQkceEUMD9FGPDLvbn-21" target="g4bfDw-wizDEZsIG3LqJ-3" edge="1">
          <mxGeometry relative="1" as="geometry" />
        </mxCell>
        <mxCell id="8PtQkceEUMD9FGPDLvbn-21" value="+ method(type): OnUdpSocketPacketReceived" style="text;strokeColor=none;fillColor=none;align=left;verticalAlign=top;spacingLeft=4;spacingRight=4;overflow=hidden;rotatable=0;points=[[0,0.5],[1,0.5]];portConstraint=eastwest;" parent="8PtQkceEUMD9FGPDLvbn-18" vertex="1">
          <mxGeometry y="60" width="440" height="26" as="geometry" />
        </mxCell>
        <mxCell id="g4bfDw-wizDEZsIG3LqJ-2" value="" style="line;strokeWidth=1;fillColor=none;align=left;verticalAlign=middle;spacingTop=-1;spacingLeft=3;spacingRight=3;rotatable=0;labelPosition=right;points=[];portConstraint=eastwest;" parent="8PtQkceEUMD9FGPDLvbn-18" vertex="1">
          <mxGeometry y="86" width="440" height="8" as="geometry" />
        </mxCell>
        <mxCell id="g4bfDw-wizDEZsIG3LqJ-36" style="edgeStyle=orthogonalEdgeStyle;rounded=0;orthogonalLoop=1;jettySize=auto;html=1;entryX=1;entryY=0.5;entryDx=0;entryDy=0;" parent="8PtQkceEUMD9FGPDLvbn-18" source="g4bfDw-wizDEZsIG3LqJ-3" target="g4bfDw-wizDEZsIG3LqJ-17" edge="1">
          <mxGeometry relative="1" as="geometry">
            <Array as="points">
              <mxPoint x="460" y="107" />
              <mxPoint x="460" y="291" />
            </Array>
          </mxGeometry>
        </mxCell>
        <mxCell id="g4bfDw-wizDEZsIG3LqJ-3" value="+ method(type): OnPacketReceived" style="text;strokeColor=none;fillColor=none;align=left;verticalAlign=top;spacingLeft=4;spacingRight=4;overflow=hidden;rotatable=0;points=[[0,0.5],[1,0.5]];portConstraint=eastwest;" parent="8PtQkceEUMD9FGPDLvbn-18" vertex="1">
          <mxGeometry y="94" width="440" height="26" as="geometry" />
        </mxCell>
        <mxCell id="g4bfDw-wizDEZsIG3LqJ-10" value="" style="line;strokeWidth=1;fillColor=none;align=left;verticalAlign=middle;spacingTop=-1;spacingLeft=3;spacingRight=3;rotatable=0;labelPosition=right;points=[];portConstraint=eastwest;" parent="8PtQkceEUMD9FGPDLvbn-18" vertex="1">
          <mxGeometry y="120" width="440" height="8" as="geometry" />
        </mxCell>
        <mxCell id="g4bfDw-wizDEZsIG3LqJ-11" value="+ method(type): OnStunDataReceived" style="text;strokeColor=none;fillColor=none;align=left;verticalAlign=top;spacingLeft=4;spacingRight=4;overflow=hidden;rotatable=0;points=[[0,0.5],[1,0.5]];portConstraint=eastwest;" parent="8PtQkceEUMD9FGPDLvbn-18" vertex="1">
          <mxGeometry y="128" width="440" height="26" as="geometry" />
        </mxCell>
        <mxCell id="g4bfDw-wizDEZsIG3LqJ-12" value="" style="line;strokeWidth=1;fillColor=none;align=left;verticalAlign=middle;spacingTop=-1;spacingLeft=3;spacingRight=3;rotatable=0;labelPosition=right;points=[];portConstraint=eastwest;" parent="8PtQkceEUMD9FGPDLvbn-18" vertex="1">
          <mxGeometry y="154" width="440" height="8" as="geometry" />
        </mxCell>
        <mxCell id="g4bfDw-wizDEZsIG3LqJ-13" value="+ method(type): OnRtcpDataReceived" style="text;strokeColor=#82b366;fillColor=#d5e8d4;align=left;verticalAlign=top;spacingLeft=4;spacingRight=4;overflow=hidden;rotatable=0;points=[[0,0.5],[1,0.5]];portConstraint=eastwest;" parent="8PtQkceEUMD9FGPDLvbn-18" vertex="1">
          <mxGeometry y="162" width="440" height="26" as="geometry" />
        </mxCell>
        <mxCell id="g4bfDw-wizDEZsIG3LqJ-14" value="" style="line;strokeWidth=1;fillColor=none;align=left;verticalAlign=middle;spacingTop=-1;spacingLeft=3;spacingRight=3;rotatable=0;labelPosition=right;points=[];portConstraint=eastwest;" parent="8PtQkceEUMD9FGPDLvbn-18" vertex="1">
          <mxGeometry y="188" width="440" height="8" as="geometry" />
        </mxCell>
        <mxCell id="g4bfDw-wizDEZsIG3LqJ-15" value="+ method(type): OnRtpDataReceived&#xa;&#xa;1. this-&gt;srtpRecvSession-&gt;DecryptSrtp&#xa;2. RTC::RtpPacket* packet = RTC::RtpPacket::Parse(data, len);" style="text;strokeColor=#b85450;fillColor=#f8cecc;align=left;verticalAlign=top;spacingLeft=4;spacingRight=4;overflow=hidden;rotatable=0;points=[[0,0.5],[1,0.5]];portConstraint=eastwest;" parent="8PtQkceEUMD9FGPDLvbn-18" vertex="1">
          <mxGeometry y="196" width="440" height="74" as="geometry" />
        </mxCell>
        <mxCell id="g4bfDw-wizDEZsIG3LqJ-16" value="" style="line;strokeWidth=1;fillColor=none;align=left;verticalAlign=middle;spacingTop=-1;spacingLeft=3;spacingRight=3;rotatable=0;labelPosition=right;points=[];portConstraint=eastwest;" parent="8PtQkceEUMD9FGPDLvbn-18" vertex="1">
          <mxGeometry y="270" width="440" height="8" as="geometry" />
        </mxCell>
        <mxCell id="g4bfDw-wizDEZsIG3LqJ-17" value="+ method(type): OnDtlsDataReceived" style="text;strokeColor=none;fillColor=none;align=left;verticalAlign=top;spacingLeft=4;spacingRight=4;overflow=hidden;rotatable=0;points=[[0,0.5],[1,0.5]];portConstraint=eastwest;" parent="8PtQkceEUMD9FGPDLvbn-18" vertex="1">
          <mxGeometry y="278" width="440" height="26" as="geometry" />
        </mxCell>
        <mxCell id="g4bfDw-wizDEZsIG3LqJ-26" style="edgeStyle=orthogonalEdgeStyle;rounded=0;orthogonalLoop=1;jettySize=auto;html=1;exitX=1;exitY=0.5;exitDx=0;exitDy=0;" parent="8PtQkceEUMD9FGPDLvbn-18" source="g4bfDw-wizDEZsIG3LqJ-11" target="g4bfDw-wizDEZsIG3LqJ-11" edge="1">
          <mxGeometry relative="1" as="geometry" />
        </mxCell>
        <mxCell id="g4bfDw-wizDEZsIG3LqJ-33" style="edgeStyle=orthogonalEdgeStyle;rounded=0;orthogonalLoop=1;jettySize=auto;html=1;exitX=1;exitY=0.5;exitDx=0;exitDy=0;entryX=1;entryY=0.5;entryDx=0;entryDy=0;" parent="8PtQkceEUMD9FGPDLvbn-18" source="g4bfDw-wizDEZsIG3LqJ-3" target="g4bfDw-wizDEZsIG3LqJ-11" edge="1">
          <mxGeometry relative="1" as="geometry">
            <mxPoint x="480" y="150" as="targetPoint" />
            <Array as="points">
              <mxPoint x="460" y="107" />
              <mxPoint x="460" y="141" />
            </Array>
          </mxGeometry>
        </mxCell>
        <mxCell id="g4bfDw-wizDEZsIG3LqJ-34" style="edgeStyle=orthogonalEdgeStyle;rounded=0;orthogonalLoop=1;jettySize=auto;html=1;" parent="1" source="g4bfDw-wizDEZsIG3LqJ-3" edge="1">
          <mxGeometry relative="1" as="geometry">
            <mxPoint x="320" y="300" as="targetPoint" />
            <Array as="points">
              <mxPoint x="340" y="227" />
              <mxPoint x="340" y="300" />
            </Array>
          </mxGeometry>
        </mxCell>
        <mxCell id="g4bfDw-wizDEZsIG3LqJ-35" style="edgeStyle=orthogonalEdgeStyle;rounded=0;orthogonalLoop=1;jettySize=auto;html=1;" parent="1" source="g4bfDw-wizDEZsIG3LqJ-3" edge="1">
          <mxGeometry relative="1" as="geometry">
            <mxPoint x="320" y="340" as="targetPoint" />
            <Array as="points">
              <mxPoint x="340" y="227" />
              <mxPoint x="340" y="340" />
            </Array>
          </mxGeometry>
        </mxCell>
        <mxCell id="g4bfDw-wizDEZsIG3LqJ-55" style="edgeStyle=orthogonalEdgeStyle;rounded=0;orthogonalLoop=1;jettySize=auto;html=1;" parent="1" source="g4bfDw-wizDEZsIG3LqJ-37" target="8PtQkceEUMD9FGPDLvbn-18" edge="1">
          <mxGeometry relative="1" as="geometry" />
        </mxCell>
        <mxCell id="g4bfDw-wizDEZsIG3LqJ-37" value="Transport" style="swimlane;fontStyle=1;align=center;verticalAlign=top;childLayout=stackLayout;horizontal=1;startSize=26;horizontalStack=0;resizeParent=1;resizeParentMax=0;resizeLast=0;collapsible=1;marginBottom=0;" parent="1" vertex="1">
          <mxGeometry x="-120" y="-320" width="440" height="288" as="geometry">
            <mxRectangle x="100" y="190" width="140" height="30" as="alternateBounds" />
          </mxGeometry>
        </mxCell>
        <mxCell id="g4bfDw-wizDEZsIG3LqJ-38" value="+ field: type" style="text;strokeColor=none;fillColor=none;align=left;verticalAlign=top;spacingLeft=4;spacingRight=4;overflow=hidden;rotatable=0;points=[[0,0.5],[1,0.5]];portConstraint=eastwest;" parent="g4bfDw-wizDEZsIG3LqJ-37" vertex="1">
          <mxGeometry y="26" width="440" height="26" as="geometry" />
        </mxCell>
        <mxCell id="g4bfDw-wizDEZsIG3LqJ-39" value="" style="line;strokeWidth=1;fillColor=none;align=left;verticalAlign=middle;spacingTop=-1;spacingLeft=3;spacingRight=3;rotatable=0;labelPosition=right;points=[];portConstraint=eastwest;" parent="g4bfDw-wizDEZsIG3LqJ-37" vertex="1">
          <mxGeometry y="52" width="440" height="8" as="geometry" />
        </mxCell>
        <mxCell id="g4bfDw-wizDEZsIG3LqJ-41" value="+ method(type): ReceiveRtpPacket&#xa;&#xa;1.     RTC::Producer* producer = this-&gt;rtpListener.GetProducer(packet);&#xa;" style="text;strokeColor=#b85450;fillColor=#f8cecc;align=left;verticalAlign=top;spacingLeft=4;spacingRight=4;overflow=hidden;rotatable=0;points=[[0,0.5],[1,0.5]];portConstraint=eastwest;" parent="g4bfDw-wizDEZsIG3LqJ-37" vertex="1">
          <mxGeometry y="60" width="440" height="110" as="geometry" />
        </mxCell>
        <mxCell id="g4bfDw-wizDEZsIG3LqJ-42" value="" style="line;strokeWidth=1;fillColor=none;align=left;verticalAlign=middle;spacingTop=-1;spacingLeft=3;spacingRight=3;rotatable=0;labelPosition=right;points=[];portConstraint=eastwest;" parent="g4bfDw-wizDEZsIG3LqJ-37" vertex="1">
          <mxGeometry y="170" width="440" height="8" as="geometry" />
        </mxCell>
        <mxCell id="g4bfDw-wizDEZsIG3LqJ-44" value="+ method(type): OnPacketReceived" style="text;strokeColor=none;fillColor=none;align=left;verticalAlign=top;spacingLeft=4;spacingRight=4;overflow=hidden;rotatable=0;points=[[0,0.5],[1,0.5]];portConstraint=eastwest;" parent="g4bfDw-wizDEZsIG3LqJ-37" vertex="1">
          <mxGeometry y="178" width="440" height="26" as="geometry" />
        </mxCell>
        <mxCell id="g4bfDw-wizDEZsIG3LqJ-45" value="" style="line;strokeWidth=1;fillColor=none;align=left;verticalAlign=middle;spacingTop=-1;spacingLeft=3;spacingRight=3;rotatable=0;labelPosition=right;points=[];portConstraint=eastwest;" parent="g4bfDw-wizDEZsIG3LqJ-37" vertex="1">
          <mxGeometry y="204" width="440" height="8" as="geometry" />
        </mxCell>
        <mxCell id="g4bfDw-wizDEZsIG3LqJ-46" value="+ method(type): OnStunDataReceived" style="text;strokeColor=none;fillColor=none;align=left;verticalAlign=top;spacingLeft=4;spacingRight=4;overflow=hidden;rotatable=0;points=[[0,0.5],[1,0.5]];portConstraint=eastwest;" parent="g4bfDw-wizDEZsIG3LqJ-37" vertex="1">
          <mxGeometry y="212" width="440" height="26" as="geometry" />
        </mxCell>
        <mxCell id="g4bfDw-wizDEZsIG3LqJ-47" value="" style="line;strokeWidth=1;fillColor=none;align=left;verticalAlign=middle;spacingTop=-1;spacingLeft=3;spacingRight=3;rotatable=0;labelPosition=right;points=[];portConstraint=eastwest;" parent="g4bfDw-wizDEZsIG3LqJ-37" vertex="1">
          <mxGeometry y="238" width="440" height="8" as="geometry" />
        </mxCell>
        <mxCell id="g4bfDw-wizDEZsIG3LqJ-49" value="" style="line;strokeWidth=1;fillColor=none;align=left;verticalAlign=middle;spacingTop=-1;spacingLeft=3;spacingRight=3;rotatable=0;labelPosition=right;points=[];portConstraint=eastwest;" parent="g4bfDw-wizDEZsIG3LqJ-37" vertex="1">
          <mxGeometry y="246" width="440" height="8" as="geometry" />
        </mxCell>
        <mxCell id="g4bfDw-wizDEZsIG3LqJ-51" value="" style="line;strokeWidth=1;fillColor=none;align=left;verticalAlign=middle;spacingTop=-1;spacingLeft=3;spacingRight=3;rotatable=0;labelPosition=right;points=[];portConstraint=eastwest;" parent="g4bfDw-wizDEZsIG3LqJ-37" vertex="1">
          <mxGeometry y="254" width="440" height="8" as="geometry" />
        </mxCell>
        <mxCell id="g4bfDw-wizDEZsIG3LqJ-52" value="+ method(type): OnDtlsDataReceived" style="text;strokeColor=none;fillColor=none;align=left;verticalAlign=top;spacingLeft=4;spacingRight=4;overflow=hidden;rotatable=0;points=[[0,0.5],[1,0.5]];portConstraint=eastwest;" parent="g4bfDw-wizDEZsIG3LqJ-37" vertex="1">
          <mxGeometry y="262" width="440" height="26" as="geometry" />
        </mxCell>
        <mxCell id="g4bfDw-wizDEZsIG3LqJ-53" style="edgeStyle=orthogonalEdgeStyle;rounded=0;orthogonalLoop=1;jettySize=auto;html=1;exitX=1;exitY=0.5;exitDx=0;exitDy=0;" parent="g4bfDw-wizDEZsIG3LqJ-37" source="g4bfDw-wizDEZsIG3LqJ-46" target="g4bfDw-wizDEZsIG3LqJ-46" edge="1">
          <mxGeometry relative="1" as="geometry" />
        </mxCell>
        <mxCell id="g4bfDw-wizDEZsIG3LqJ-56" style="edgeStyle=orthogonalEdgeStyle;rounded=0;orthogonalLoop=1;jettySize=auto;html=1;entryX=0;entryY=0.5;entryDx=0;entryDy=0;" parent="1" source="g4bfDw-wizDEZsIG3LqJ-15" target="g4bfDw-wizDEZsIG3LqJ-41" edge="1">
          <mxGeometry relative="1" as="geometry">
            <Array as="points">
              <mxPoint x="-160" y="353" />
              <mxPoint x="-160" y="-204" />
              <mxPoint x="-120" y="-204" />
            </Array>
          </mxGeometry>
        </mxCell>
      </root>
    </mxGraphModel>
  </diagram>
  <diagram id="4ChozOWc3NTncRI3XuZf" name="Page-2">
    <mxGraphModel dx="911" dy="718" grid="1" gridSize="10" guides="1" tooltips="1" connect="1" arrows="1" fold="1" page="1" pageScale="1" pageWidth="827" pageHeight="1169" math="0" shadow="0">
      <root>
        <mxCell id="0" />
        <mxCell id="1" parent="0" />
        <mxCell id="WtsSnu9xnpH1MsAYIxjz-1" value="导播台" style="rounded=0;whiteSpace=wrap;html=1;" parent="1" vertex="1">
          <mxGeometry x="200" y="160" width="120" height="60" as="geometry" />
        </mxCell>
        <mxCell id="WtsSnu9xnpH1MsAYIxjz-5" style="edgeStyle=orthogonalEdgeStyle;rounded=0;orthogonalLoop=1;jettySize=auto;html=1;entryX=1;entryY=0.5;entryDx=0;entryDy=0;startArrow=classic;startFill=1;exitX=0.75;exitY=1;exitDx=0;exitDy=0;" parent="1" source="WtsSnu9xnpH1MsAYIxjz-2" target="WtsSnu9xnpH1MsAYIxjz-4" edge="1">
          <mxGeometry relative="1" as="geometry" />
        </mxCell>
        <mxCell id="WtsSnu9xnpH1MsAYIxjz-2" value="WebRTC输入组件" style="rounded=0;whiteSpace=wrap;html=1;" parent="1" vertex="1">
          <mxGeometry x="320" y="160" width="120" height="60" as="geometry" />
        </mxCell>
        <mxCell id="WtsSnu9xnpH1MsAYIxjz-3" value="WebRTC输入组件" style="rounded=0;whiteSpace=wrap;html=1;" parent="1" vertex="1">
          <mxGeometry x="80" y="160" width="120" height="60" as="geometry" />
        </mxCell>
        <mxCell id="WtsSnu9xnpH1MsAYIxjz-6" style="edgeStyle=orthogonalEdgeStyle;rounded=0;orthogonalLoop=1;jettySize=auto;html=1;exitX=0;exitY=0.5;exitDx=0;exitDy=0;entryX=0.25;entryY=1;entryDx=0;entryDy=0;startArrow=classic;startFill=1;" parent="1" source="WtsSnu9xnpH1MsAYIxjz-4" target="WtsSnu9xnpH1MsAYIxjz-3" edge="1">
          <mxGeometry relative="1" as="geometry" />
        </mxCell>
        <mxCell id="WtsSnu9xnpH1MsAYIxjz-4" value="信令" style="rounded=0;whiteSpace=wrap;html=1;" parent="1" vertex="1">
          <mxGeometry x="200" y="370" width="120" height="60" as="geometry" />
        </mxCell>
        <mxCell id="WtsSnu9xnpH1MsAYIxjz-8" style="edgeStyle=orthogonalEdgeStyle;rounded=0;orthogonalLoop=1;jettySize=auto;html=1;entryX=0.5;entryY=1;entryDx=0;entryDy=0;startArrow=classic;startFill=1;exitX=0;exitY=0.5;exitDx=0;exitDy=0;" parent="1" source="WtsSnu9xnpH1MsAYIxjz-7" target="WtsSnu9xnpH1MsAYIxjz-3" edge="1">
          <mxGeometry relative="1" as="geometry" />
        </mxCell>
        <mxCell id="WtsSnu9xnpH1MsAYIxjz-7" value="SFU" style="rounded=0;whiteSpace=wrap;html=1;" parent="1" vertex="1">
          <mxGeometry x="200" y="280" width="120" height="60" as="geometry" />
        </mxCell>
        <mxCell id="WtsSnu9xnpH1MsAYIxjz-9" style="edgeStyle=orthogonalEdgeStyle;rounded=0;orthogonalLoop=1;jettySize=auto;html=1;entryX=0.5;entryY=1;entryDx=0;entryDy=0;startArrow=classic;startFill=1;exitX=1;exitY=0.5;exitDx=0;exitDy=0;" parent="1" source="WtsSnu9xnpH1MsAYIxjz-7" target="WtsSnu9xnpH1MsAYIxjz-2" edge="1">
          <mxGeometry relative="1" as="geometry">
            <mxPoint x="210" y="320" as="sourcePoint" />
            <mxPoint x="150" y="230" as="targetPoint" />
          </mxGeometry>
        </mxCell>
        <mxCell id="WtsSnu9xnpH1MsAYIxjz-15" style="edgeStyle=orthogonalEdgeStyle;rounded=0;orthogonalLoop=1;jettySize=auto;html=1;entryX=0;entryY=1;entryDx=0;entryDy=0;startArrow=classic;startFill=1;" parent="1" source="WtsSnu9xnpH1MsAYIxjz-10" target="WtsSnu9xnpH1MsAYIxjz-4" edge="1">
          <mxGeometry relative="1" as="geometry">
            <Array as="points">
              <mxPoint x="140" y="430" />
            </Array>
          </mxGeometry>
        </mxCell>
        <mxCell id="WtsSnu9xnpH1MsAYIxjz-18" style="edgeStyle=orthogonalEdgeStyle;rounded=0;orthogonalLoop=1;jettySize=auto;html=1;exitX=0.75;exitY=0;exitDx=0;exitDy=0;entryX=0;entryY=1;entryDx=0;entryDy=0;startArrow=classic;startFill=1;" parent="1" source="WtsSnu9xnpH1MsAYIxjz-10" target="WtsSnu9xnpH1MsAYIxjz-7" edge="1">
          <mxGeometry relative="1" as="geometry">
            <Array as="points">
              <mxPoint x="170" y="340" />
            </Array>
          </mxGeometry>
        </mxCell>
        <mxCell id="WtsSnu9xnpH1MsAYIxjz-10" value="医百会议" style="rounded=0;whiteSpace=wrap;html=1;" parent="1" vertex="1">
          <mxGeometry x="80" y="450" width="120" height="90" as="geometry" />
        </mxCell>
        <mxCell id="WtsSnu9xnpH1MsAYIxjz-12" value="腾讯会议" style="rounded=0;whiteSpace=wrap;html=1;" parent="1" vertex="1">
          <mxGeometry x="320" y="480" width="120" height="60" as="geometry" />
        </mxCell>
        <mxCell id="WtsSnu9xnpH1MsAYIxjz-14" style="edgeStyle=orthogonalEdgeStyle;rounded=0;orthogonalLoop=1;jettySize=auto;html=1;entryX=1;entryY=1;entryDx=0;entryDy=0;startArrow=classic;startFill=1;" parent="1" source="WtsSnu9xnpH1MsAYIxjz-13" target="WtsSnu9xnpH1MsAYIxjz-4" edge="1">
          <mxGeometry relative="1" as="geometry" />
        </mxCell>
        <mxCell id="WtsSnu9xnpH1MsAYIxjz-17" style="edgeStyle=orthogonalEdgeStyle;rounded=0;orthogonalLoop=1;jettySize=auto;html=1;exitX=0.25;exitY=0;exitDx=0;exitDy=0;entryX=1;entryY=1;entryDx=0;entryDy=0;startArrow=classic;startFill=1;" parent="1" source="WtsSnu9xnpH1MsAYIxjz-13" target="WtsSnu9xnpH1MsAYIxjz-7" edge="1">
          <mxGeometry relative="1" as="geometry">
            <Array as="points">
              <mxPoint x="350" y="340" />
            </Array>
          </mxGeometry>
        </mxCell>
        <mxCell id="WtsSnu9xnpH1MsAYIxjz-13" value="bot SDK" style="rounded=0;whiteSpace=wrap;html=1;" parent="1" vertex="1">
          <mxGeometry x="320" y="450" width="120" height="30" as="geometry" />
        </mxCell>
      </root>
    </mxGraphModel>
  </diagram>
  <diagram id="-ucVpdD43iX-QtT8zcgM" name="第 3 页">
    <mxGraphModel dx="911" dy="718" grid="1" gridSize="10" guides="1" tooltips="1" connect="1" arrows="1" fold="1" page="1" pageScale="1" pageWidth="827" pageHeight="1169" math="0" shadow="0">
      <root>
        <mxCell id="0" />
        <mxCell id="1" parent="0" />
        <mxCell id="a_zgyKzRYO8UHZ9quJLL-1" value="房间管理" style="whiteSpace=wrap;html=1;aspect=fixed;fillColor=#d5e8d4;strokeColor=#82b366;" vertex="1" parent="1">
          <mxGeometry x="240" y="240" width="80" height="80" as="geometry" />
        </mxCell>
        <mxCell id="a_zgyKzRYO8UHZ9quJLL-2" value="调度管理" style="whiteSpace=wrap;html=1;aspect=fixed;" vertex="1" parent="1">
          <mxGeometry x="360" y="240" width="80" height="80" as="geometry" />
        </mxCell>
        <mxCell id="a_zgyKzRYO8UHZ9quJLL-11" style="edgeStyle=orthogonalEdgeStyle;rounded=0;orthogonalLoop=1;jettySize=auto;html=1;exitX=0.5;exitY=1;exitDx=0;exitDy=0;entryX=0.5;entryY=0;entryDx=0;entryDy=0;startArrow=classic;startFill=1;" edge="1" parent="1" source="a_zgyKzRYO8UHZ9quJLL-3" target="a_zgyKzRYO8UHZ9quJLL-7">
          <mxGeometry relative="1" as="geometry" />
        </mxCell>
        <mxCell id="a_zgyKzRYO8UHZ9quJLL-3" value="ws服务器" style="whiteSpace=wrap;html=1;aspect=fixed;fillColor=#d5e8d4;strokeColor=#82b366;" vertex="1" parent="1">
          <mxGeometry x="240" y="360" width="80" height="80" as="geometry" />
        </mxCell>
        <mxCell id="a_zgyKzRYO8UHZ9quJLL-10" style="edgeStyle=orthogonalEdgeStyle;rounded=0;orthogonalLoop=1;jettySize=auto;html=1;entryX=0.5;entryY=0;entryDx=0;entryDy=0;startArrow=classic;startFill=1;" edge="1" parent="1" source="a_zgyKzRYO8UHZ9quJLL-4" target="a_zgyKzRYO8UHZ9quJLL-9">
          <mxGeometry relative="1" as="geometry" />
        </mxCell>
        <mxCell id="a_zgyKzRYO8UHZ9quJLL-4" value="ws客户端" style="whiteSpace=wrap;html=1;aspect=fixed;" vertex="1" parent="1">
          <mxGeometry x="360" y="360" width="80" height="80" as="geometry" />
        </mxCell>
        <mxCell id="a_zgyKzRYO8UHZ9quJLL-5" value="SFU服务管理" style="whiteSpace=wrap;html=1;aspect=fixed;" vertex="1" parent="1">
          <mxGeometry x="480" y="240" width="80" height="80" as="geometry" />
        </mxCell>
        <mxCell id="a_zgyKzRYO8UHZ9quJLL-6" value="consul" style="whiteSpace=wrap;html=1;aspect=fixed;" vertex="1" parent="1">
          <mxGeometry x="480" y="360" width="80" height="80" as="geometry" />
        </mxCell>
        <mxCell id="a_zgyKzRYO8UHZ9quJLL-7" value="网关" style="whiteSpace=wrap;html=1;aspect=fixed;" vertex="1" parent="1">
          <mxGeometry x="240" y="520" width="80" height="80" as="geometry" />
        </mxCell>
        <mxCell id="a_zgyKzRYO8UHZ9quJLL-8" value="" style="endArrow=none;dashed=1;html=1;rounded=0;" edge="1" parent="1">
          <mxGeometry width="50" height="50" relative="1" as="geometry">
            <mxPoint y="480" as="sourcePoint" />
            <mxPoint x="680" y="480" as="targetPoint" />
          </mxGeometry>
        </mxCell>
        <mxCell id="a_zgyKzRYO8UHZ9quJLL-9" value="中继" style="whiteSpace=wrap;html=1;aspect=fixed;" vertex="1" parent="1">
          <mxGeometry x="360" y="520" width="80" height="80" as="geometry" />
        </mxCell>
        <mxCell id="a_zgyKzRYO8UHZ9quJLL-12" value="日志管理" style="whiteSpace=wrap;html=1;aspect=fixed;fillColor=#f8cecc;strokeColor=#b85450;" vertex="1" parent="1">
          <mxGeometry x="120" y="360" width="80" height="80" as="geometry" />
        </mxCell>
        <mxCell id="a_zgyKzRYO8UHZ9quJLL-13" value="配置管理" style="whiteSpace=wrap;html=1;aspect=fixed;fillColor=#f8cecc;strokeColor=#b85450;" vertex="1" parent="1">
          <mxGeometry x="120" y="240" width="80" height="80" as="geometry" />
        </mxCell>
        <mxCell id="a_zgyKzRYO8UHZ9quJLL-15" value="&lt;p style=&quot;line-height: 18px;&quot;&gt;&lt;font style=&quot;&quot; face=&quot;Menlo, Monaco, Courier New, monospace&quot;&gt;&lt;span style=&quot;white-space: pre;&quot;&gt;prometheus&lt;/span&gt;&lt;/font&gt;&lt;br&gt;&lt;/p&gt;" style="whiteSpace=wrap;html=1;aspect=fixed;" vertex="1" parent="1">
          <mxGeometry x="360" y="120" width="80" height="80" as="geometry" />
        </mxCell>
        <mxCell id="a_zgyKzRYO8UHZ9quJLL-16" value="&lt;p style=&quot;line-height: 18px;&quot;&gt;&lt;font style=&quot;&quot; face=&quot;Menlo, Monaco, Courier New, monospace&quot;&gt;&lt;span style=&quot;white-space: pre;&quot;&gt;rocketmq&lt;/span&gt;&lt;/font&gt;&lt;br&gt;&lt;/p&gt;" style="whiteSpace=wrap;html=1;aspect=fixed;fillColor=#f8cecc;strokeColor=#b85450;" vertex="1" parent="1">
          <mxGeometry x="240" y="120" width="80" height="80" as="geometry" />
        </mxCell>
        <mxCell id="a_zgyKzRYO8UHZ9quJLL-17" value="" style="endArrow=none;dashed=1;html=1;dashPattern=1 3;strokeWidth=2;rounded=0;" edge="1" parent="1">
          <mxGeometry width="50" height="50" relative="1" as="geometry">
            <mxPoint x="330" y="100" as="sourcePoint" />
            <mxPoint x="330" y="30" as="targetPoint" />
          </mxGeometry>
        </mxCell>
      </root>
    </mxGraphModel>
  </diagram>
</mxfile>
